<svg width="1200" height="760" viewBox="0 0 1200 760" fill="none" xmlns="http://www.w3.org/2000/svg">
  <defs>
    <linearGradient id="bg" x1="0" y1="0" x2="1200" y2="760" gradientUnits="userSpaceOnUse">
      <stop stop-color="#EAF0FF"/>
      <stop offset="1" stop-color="#F6FFFB"/>
    </linearGradient>
    <linearGradient id="card" x1="188" y1="150" x2="980" y2="624" gradientUnits="userSpaceOnUse">
      <stop stop-color="#FFFFFF"/>
      <stop offset="1" stop-color="#F3F7FF"/>
    </linearGradient>
  </defs>
  <rect width="1200" height="760" rx="36" fill="url(#bg)"/>
  <circle cx="176" cy="118" r="84" fill="#D8E7FF"/>
  <circle cx="1060" cy="646" r="116" fill="#D7FAE8"/>
  <rect x="118" y="122" width="964" height="516" rx="28" fill="url(#card)" stroke="#C9D7F3" stroke-width="3"/>
  <rect x="170" y="186" width="280" height="180" rx="22" fill="#DDE7FF"/>
  <rect x="486" y="186" width="544" height="38" rx="12" fill="#C7D8FF"/>
  <rect x="486" y="246" width="472" height="26" rx="10" fill="#DDE7FF"/>
  <rect x="486" y="292" width="364" height="26" rx="10" fill="#E8F0FF"/>
  <rect x="170" y="408" width="250" height="166" rx="22" fill="#E8FFF4"/>
  <rect x="448" y="408" width="250" height="166" rx="22" fill="#EAF0FF"/>
  <rect x="726" y="408" width="304" height="166" rx="22" fill="#F2F6FF"/>
  <text x="170" y="84" fill="#2C3A56" font-family="Inter, Arial, sans-serif" font-size="36" font-weight="800">Dataset Website Template</text>
  <text x="170" y="696" fill="#5A6B8E" font-family="Inter, Arial, sans-serif" font-size="28" font-weight="600">Replace this figure with your teaser image, pipeline, or benchmark overview.</text>
</svg>
